<svg width="41" height="35" viewBox="0 0 41 35" fill="none" xmlns="http://www.w3.org/2000/svg">
<path d="M32.4584 24.7917V7.29167C32.4584 6.51812 32.0984 5.77625 31.4577 5.22927C30.8169 4.68229 29.9479 4.375 29.0417 4.375H6.83341M6.83341 4.375C7.73957 4.375 8.60861 4.68229 9.24936 5.22927C9.89011 5.77625 10.2501 6.51812 10.2501 7.29167V27.7083C10.2501 28.4819 10.6101 29.2237 11.2508 29.7707C11.8915 30.3177 12.7606 30.625 13.6667 30.625M6.83341 4.375C5.92726 4.375 5.05822 4.68229 4.41747 5.22927C3.77672 5.77625 3.41675 6.51812 3.41675 7.29167V10.2083C3.41675 10.5951 3.59673 10.966 3.91711 11.2395C4.23748 11.513 4.672 11.6667 5.12508 11.6667H10.2501M13.6667 30.625H34.1667C35.0729 30.625 35.9419 30.3177 36.5827 29.7707C37.2234 29.2237 37.5834 28.4819 37.5834 27.7083V26.25C37.5834 25.8632 37.4034 25.4923 37.0831 25.2188C36.7627 24.9453 36.3282 24.7917 35.8751 24.7917H18.7917C18.3387 24.7917 17.9041 24.9453 17.5838 25.2188C17.2634 25.4923 17.0834 25.8632 17.0834 26.25V27.7083C17.0834 28.4819 16.7234 29.2237 16.0827 29.7707C15.4419 30.3177 14.5729 30.625 13.6667 30.625Z" stroke="white" stroke-width="3" stroke-linecap="round" stroke-linejoin="round"/>
</svg>
