<svg width="82" height="174" viewBox="0 0 82 174" fill="none" xmlns="http://www.w3.org/2000/svg">
<path d="M27.673 171.57C24.7804 172.417 21.8877 173.264 18.0651 173.137C14.2543 172.52 11.3734 172.875 8.49256 173.231C7.69843 173.146 6.90439 173.062 5.64201 171.559C3.95019 168.588 2.72655 167.037 1.50291 165.485C-1.59175 132.329 -0.175821 99.9452 8.27353 71.4967C13.367 54.3469 20.856 40.5398 28.174 24.8356C29.4245 23.3429 29.7695 22.2451 30.1145 21.1473C30.2148 20.262 30.4586 19.6411 31.5984 19.2416C32.9472 17.9322 33.5432 16.6658 34.1392 15.3993C34.1392 15.3993 34.2214 15.7228 34.5439 15.6388C35.1868 14.6634 35.5073 13.7721 35.8277 12.8807C35.8277 12.8807 36.0182 12.5014 36.6433 12.5338C37.7084 11.5761 38.1485 10.5859 38.5887 9.59576C38.5887 9.59576 38.7916 9.36444 39.3859 9.49726C40.4347 8.71824 40.8892 7.80642 41.3437 6.89459C41.3437 6.89459 41.5312 6.46945 42.1114 6.75377C43.6312 5.88698 44.5707 4.73589 45.5103 3.5848C46.0905 2.95018 46.6707 2.31554 47.9252 2.3777C49.4041 2.28517 50.2087 1.49583 51.0134 0.706504C55.1605 0.139264 59.3075 -0.427976 64.1888 0.469681C69.0981 4.23845 73.2732 6.54234 77.7996 9.04009C77.7804 9.14874 77.4088 11.2529 76.56 13.485C71.8553 19.5825 67.6277 25.5519 63.1505 30.7197C62.5407 25.0976 62.1806 20.2771 61.6433 13.0852C57.3007 5.58314 48.7495 5.38393 41.8609 17.9323C33.3391 33.4561 25.6683 51.175 17.6298 67.9455C18.5634 68.7747 19.4969 69.604 20.4304 70.4333C20.5099 76.2334 20.5893 82.0335 20.1765 87.967C17.8565 92.1096 16.0288 96.1188 14.201 100.128C18.7279 108.338 14.6889 112.906 12.7669 119.064C11.6249 122.723 11.6068 128.031 10.7234 133.258C11.0553 141.049 11.7471 148.178 12.3325 154.21C14.9243 154.21 17.9264 152.242 19.7134 154.599C24.1093 160.4 27.7966 157.482 31.9198 154.333C33.423 158.855 34.7105 162.474 35.9979 166.093C35.2988 166.898 34.5996 167.704 33.3422 167.938C32.4951 168.038 32.2063 168.71 31.9176 169.382C31.1907 170.028 30.4639 170.674 29.2003 170.696C28.3334 170.57 28.0031 171.07 27.673 171.57Z" fill="#749023"/>
<path d="M36.4897 166.095C34.7104 162.475 33.4229 158.856 31.924 153.342C31.7118 150.123 31.7112 148.801 32.102 147.38C32.9372 146.369 33.3809 145.457 33.8246 144.546C33.5371 144.003 33.2495 143.459 32.962 142.916C32.5448 144.435 32.1277 145.955 31.2106 147.268C30.5911 139.271 30.4714 131.479 30.6826 123.216C31.6969 121.043 32.3802 119.342 33.5351 117.819C34.9857 120.792 35.965 123.587 37.5847 128.21C38.5735 118.593 39.2366 112.144 40.1067 104.699C40.7027 99.4551 41.0917 95.207 41.9634 90.9807C44.5003 92.6125 46.5545 94.2226 48.0568 95.4001C51.1854 88.1451 54.0621 81.4744 58.2087 71.8589C58.9255 82.5773 59.3041 88.2383 59.8264 96.0464C64.3354 80.067 59.204 59.9578 66.6781 48.562C67.3369 59.2516 66.7566 69.4186 66.7421 79.5894C66.7367 83.3341 68.067 87.0879 68.7879 91.9802C67.8757 100.33 66.9637 107.537 65.8502 115.635C59.8834 128.031 54.1182 139.538 48.3529 151.045C48.3529 151.045 48.2473 150.719 47.8717 150.763C46.8615 151.984 46.227 153.162 45.5925 154.339C42.7222 158.259 39.8518 162.178 36.4897 166.095Z" fill="#789635"/>
<path d="M77.0373 13.3577C77.4089 11.2535 77.7805 9.14937 77.7997 9.04073C73.2732 6.54297 69.0982 4.23909 64.7769 0.967602C70.9472 -1.065e-06 77.264 0 81.9971 0C81.9971 15.6226 82.0157 30.7717 81.9927 45.9204C81.9613 66.5414 80.3043 86.1131 73.5213 102.795C72.9928 102.94 72.8403 102.628 72.8692 101.412C73.6991 87.7821 75.5791 75.1433 75.0416 63.0075C74.2829 45.8742 73.4187 29.3896 77.0373 13.3577Z" fill="#809A3A"/>
<path d="M48.8538 150.993C54.1182 139.538 59.8835 128.031 66.2604 115.182C68.8615 110.102 70.8509 106.365 72.8402 102.628C72.8402 102.628 72.9928 102.94 73.0694 103.096C68.1484 126.022 59.2339 139.612 48.8538 150.993Z" fill="#809A3A"/>
<path d="M9.04443 173.712C11.3734 172.876 14.2543 172.521 17.5053 172.872C15.1157 173.783 12.356 173.989 9.04443 173.712Z" fill="#789635"/>
<path d="M45.0982 3.39606C44.5708 4.73647 43.6313 5.88756 42.2471 6.76376C42.7637 5.39481 43.7248 4.30077 45.0982 3.39606Z" fill="#809A3A"/>
<path d="M1.56226 166.483C2.72661 167.037 3.95025 168.589 5.32727 171.002C4.19428 170.403 2.90791 168.941 1.56226 166.483Z" fill="#789635"/>
<path d="M50.6595 0.374023C50.2087 1.49501 49.4041 2.28366 48.4207 2.46441C48.9297 1.25155 49.6175 0.646623 50.6595 0.374023Z" fill="#809A3A"/>
<path d="M46.0166 154.135C46.2272 153.162 46.8617 151.984 47.954 150.852C47.7547 151.908 47.0977 152.92 46.0166 154.135Z" fill="#809A3A"/>
<path d="M33.7146 15.4907C33.5431 16.6664 32.9471 17.9328 31.886 19.1506C32.0439 17.9285 32.6669 16.755 33.7146 15.4907Z" fill="#809A3A"/>
<path d="M29.6845 21.4462C29.7694 22.2457 29.4244 23.3434 28.5997 24.5709C28.4981 23.7152 28.8763 22.7298 29.6845 21.4462Z" fill="#809A3A"/>
<path d="M35.4337 12.9941C35.5073 13.7727 35.1868 14.664 34.4608 15.599C34.3833 14.7974 34.7115 13.9522 35.4337 12.9941Z" fill="#809A3A"/>
<path d="M38.1153 9.71565C38.1485 10.5865 37.7084 11.5767 36.7716 12.5693C36.7306 11.6595 37.1862 10.7472 38.1153 9.71565Z" fill="#809A3A"/>
<path d="M40.8807 6.9794C40.8891 7.80702 40.4346 8.71885 39.4948 9.57562C39.4789 8.70156 39.9484 7.88257 40.8807 6.9794Z" fill="#809A3A"/>
<path d="M28.0165 171.713C28.0032 171.07 28.3335 170.571 28.8024 170.543C28.7475 171.296 28.5537 171.576 28.0165 171.713Z" fill="#789635"/>
<path d="M32.2576 169.404C32.2063 168.71 32.4951 168.039 32.9356 167.887C33.0874 168.406 32.5975 169.427 32.2576 169.404Z" fill="#789635"/>
<path d="M20.6688 87.8342C20.5894 82.0341 20.51 76.234 20.4305 70.4339C19.497 69.6046 18.5635 68.7753 17.6299 67.9461C25.6684 51.1756 33.3392 33.4567 41.861 17.9329C48.7495 5.38454 57.3008 5.58375 61.6434 13.0858C62.1807 20.2777 62.5408 25.0982 62.9284 31.5813C59.9077 38.5808 56.8595 43.9179 53.2432 49.2394C48.5844 48.1748 46.0781 50.8105 44.6445 60.3879C43.7622 66.2822 40.8199 70.7486 38.7722 75.7985C33.8825 87.857 26.7724 84.3054 20.6688 87.8342Z" fill="#638316"/>
<path d="M20.1764 87.9676C26.7722 84.3054 33.8824 87.857 38.7721 75.7984C40.8197 70.7486 43.762 66.2822 44.6443 60.3879C46.0779 50.8105 48.5842 48.1747 53.0475 50.0867C53.0722 53.2952 52.7243 55.6409 52.377 58.744C52.5601 60.3437 52.7427 61.1859 52.9251 62.0281C53.1941 60.8065 53.4632 59.5848 54.1824 58.2836C55.2335 58.117 55.8343 58.0298 56.4322 59.0546C54.3203 66.0616 50.812 77.5838 50.314 77.002C43.574 69.1269 41.9472 84.8837 37.7895 89.4404C39.02 89.9466 40.2503 90.4528 41.4807 90.9589C41.0917 95.207 40.7027 99.4551 39.575 104.73C34.9186 105.169 32.7926 108.669 33.0637 117.64C32.3802 119.342 31.6969 121.043 30.1497 123.202C27.2641 125.327 24.2897 125.722 23.3883 128.889C19.7631 141.623 15.7164 139.801 11.0833 132.597C11.6067 128.031 11.6248 122.724 12.7668 119.065C14.6889 112.907 18.7278 108.338 14.201 100.128C16.0287 96.1193 17.8565 92.1102 20.1764 87.9676ZM49.8152 69.3219C49.7384 68.8184 49.6617 68.3149 49.5849 67.8114C49.5096 68.3182 49.4344 68.8249 49.8152 69.3219Z" fill="#5D7617"/>
<path d="M52.3765 57.9866C52.7243 55.641 53.0722 53.2952 53.6156 50.1022C56.8594 43.9178 59.9076 38.5808 63.1779 32.3829C67.6276 25.5525 71.8553 19.583 76.56 13.4856C73.4186 29.3896 74.2828 45.8741 75.0415 63.0074C75.5789 75.1432 73.699 87.782 72.8691 101.412C70.8508 106.365 68.8614 110.102 66.4619 114.292C66.9637 107.537 67.8758 100.33 68.7906 90.6524C69.6711 69.7202 70.5487 51.2585 71.4263 32.7968C70.7355 32.0947 70.0448 31.3925 69.3541 30.6904C65.0478 39.7745 60.7415 48.8586 56.4352 57.9426C55.8343 58.0298 55.2335 58.117 53.8435 58.1856C53.0544 58.167 52.3765 57.9866 52.3765 57.9866Z" fill="#85A539"/>
<path d="M10.7234 133.259C15.7164 139.801 19.7632 141.623 23.3883 128.889C24.2898 125.722 27.2642 125.327 29.8188 123.673C30.4715 131.479 30.5911 139.271 31.2107 147.269C31.7106 147.476 31.7106 147.478 31.7106 147.478C31.7112 148.801 31.7119 150.123 31.7082 152.438C27.7966 157.483 24.1093 160.401 19.7134 154.6C17.9264 152.242 14.9243 154.211 12.3324 154.211C11.7471 148.178 11.0553 141.049 10.7234 133.259Z" fill="#678722"/>
<path d="M56.4322 59.0546C60.7415 48.8585 65.0478 39.7745 69.3541 30.6904C70.0448 31.3925 70.7355 32.0947 71.4263 32.7968C70.5487 51.2585 69.6711 69.7202 68.7908 89.5097C68.067 87.0878 66.7367 83.3341 66.7421 79.5894C66.7566 69.4186 67.3369 59.2516 66.6781 48.562C59.204 59.9578 64.3354 80.067 59.8264 96.0464C59.3042 88.2383 58.9255 82.5773 58.2087 71.8588C54.0621 81.4744 51.1855 88.145 48.0568 95.4C46.5545 94.2225 44.5004 92.6125 41.9634 90.9807C40.2503 90.4528 39.02 89.9466 37.7896 89.4404C41.9473 84.8837 43.574 69.1269 50.314 77.002C50.812 77.5838 54.3204 66.0616 56.4322 59.0546Z" fill="#678722"/>
<path d="M33.535 117.819C32.7925 108.669 34.9185 105.169 39.3678 105.726C39.2365 112.144 38.5734 118.593 37.5846 128.21C35.9649 123.587 34.9856 120.792 33.535 117.819Z" fill="#678722"/>
<path d="M31.7107 147.475C32.1278 145.954 32.5449 144.435 32.9621 142.916C33.2496 143.459 33.5372 144.003 33.8247 144.546C33.381 145.457 32.9374 146.369 32.1022 147.379C31.7107 147.478 31.7107 147.475 31.7107 147.475Z" fill="#678722"/>
<path d="M35.0762 137.155C35.0296 136.995 35.1229 137.316 35.0762 137.155V137.155Z" fill="#678722"/>
<path d="M52.377 58.744C52.3764 57.9866 53.0544 58.167 53.3933 58.2651C53.4632 59.5848 53.1941 60.8065 52.9251 62.0281C52.7427 61.1859 52.5601 60.3436 52.377 58.744Z" fill="#678722"/>
<path d="M49.5873 69.3251C49.4345 68.8238 49.5097 68.3176 49.5849 67.8114C49.6618 68.3143 49.7385 68.8173 49.5873 69.3251Z" fill="#678722"/>
<path d="M35.2187 92.289C35.1723 92.1315 35.2651 92.4465 35.2187 92.289V92.289Z" fill="#678722"/>
</svg>
