<svg width="43" height="43" viewBox="0 0 43 43" fill="none" xmlns="http://www.w3.org/2000/svg">
<path d="M21.5 25.0833L19.7083 26.875M24.6354 32.6979L22.3958 35.2421M31.8469 10.1301C26.51 11.2513 21.6148 13.9015 17.7586 17.7575C13.9023 21.6134 11.2517 26.5083 10.1301 31.8451M33.6833 16.6625C31.8539 17.1614 30.2976 18.3667 29.3568 20.0131C28.4159 21.6595 28.1677 23.6122 28.6666 25.4417C29.1656 27.2711 30.3708 28.8274 32.0172 29.7682C33.6637 30.709 35.6164 30.9573 37.4458 30.4583M39.3521 37.1448C39.4375 37.4508 39.44 37.774 39.3594 38.0812C39.2788 38.3885 39.1179 38.6687 38.8933 38.8934C38.6687 39.118 38.3884 39.2788 38.0812 39.3594C37.7739 39.4401 37.4508 39.4376 37.1448 39.3522L4.89481 30.3938C4.66809 30.3307 4.45602 30.2235 4.27073 30.0784C4.08544 29.9333 3.93055 29.7531 3.81492 29.5481C3.69928 29.3432 3.62517 29.1174 3.5968 28.8838C3.56844 28.6501 3.58638 28.4132 3.6496 28.1865C5.27688 22.3281 8.3914 16.9901 12.6907 12.6908C16.9901 8.39144 22.3281 5.27691 28.1865 3.64963C28.4132 3.58641 28.6501 3.56847 28.8837 3.59683C29.1174 3.6252 29.3431 3.69931 29.5481 3.81495C29.7531 3.93058 29.9333 4.08547 30.0784 4.27076C30.2235 4.45605 30.3307 4.66812 30.3938 4.89484L39.3521 37.1448Z" stroke="white" stroke-width="2" stroke-linecap="round" stroke-linejoin="round"/>
</svg>
