<svg width="57" height="60" viewBox="0 0 57 60" fill="none" xmlns="http://www.w3.org/2000/svg">
<path d="M47.9232 8.615C42.868 3.29246 35.8846 0 28.1702 0C12.7433 0 0.234909 13.1678 0.234909 29.4125C0.234909 34.8181 1.61993 39.8815 4.03479 44.2345L3.96338 44.096L0 59.3354L14.8068 55.2456C18.6611 57.4993 23.2597 58.8249 28.1533 58.8249H28.1646C43.5915 58.819 56.0943 45.6492 56.0943 29.4065C56.0943 21.2882 52.9709 13.9395 47.9213 8.61697L47.9232 8.615ZM28.1646 53.8566H28.1552C23.7972 53.8566 19.7173 52.5903 16.235 50.388L16.3402 50.4494L15.4927 49.9211L6.70711 52.3489L9.05056 43.3282L8.49805 42.4042C6.27112 38.72 4.94811 34.2305 4.94811 29.4145C4.94811 15.9162 15.3424 4.97232 28.1627 4.97232C40.9831 4.97232 51.3773 15.9162 51.3773 29.4145C51.3773 42.9127 40.9869 53.8566 28.1646 53.8566ZM40.8985 35.5522C40.2013 35.1842 36.7698 33.4093 36.1308 33.162C35.49 32.9166 35.0239 32.7959 34.5579 33.532C34.0956 34.2661 32.7575 35.9202 32.3497 36.4109C31.9438 36.9036 31.5341 36.963 30.8369 36.5969C28.6758 35.6749 26.819 34.4461 25.2048 32.9325L25.2235 32.9503C23.722 31.4861 22.4347 29.8102 21.3955 27.9621L21.3429 27.8592C20.9369 27.1252 21.2996 26.7275 21.6473 26.3614C21.9611 26.033 22.3464 25.5027 22.694 25.0753C22.9684 24.7211 23.2033 24.3155 23.3819 23.8802L23.3931 23.8466C23.4739 23.6744 23.5209 23.4746 23.5209 23.2609C23.5209 23.0017 23.4514 22.7603 23.3311 22.5545L23.3349 22.5604C23.1582 22.1924 21.7638 18.5755 21.1831 17.1034C20.6156 15.6708 20.0386 15.8667 19.612 15.843C19.2061 15.8232 18.7401 15.8192 18.274 15.8192C17.5317 15.839 16.8721 16.1912 16.4173 16.7353L16.4154 16.7393C14.9082 18.245 13.9724 20.3681 13.9724 22.7207C13.9724 22.7722 13.9724 22.8256 13.9742 22.877V22.8691C14.2204 25.7718 15.254 28.3776 16.8439 30.5007L16.8213 30.471C19.8357 35.1782 23.8536 38.9436 28.5686 41.4802L28.7453 41.5653C29.7751 42.056 31.0944 42.5803 32.4437 43.0295L32.7237 43.1106C33.5543 43.3876 34.5109 43.5479 35.5031 43.5479C36.0726 43.5479 36.6326 43.4944 37.1738 43.3935L37.1156 43.4015C39.1245 42.9602 40.7914 41.684 41.8081 39.9408L41.825 39.9072C42.1351 39.183 42.3155 38.3381 42.3155 37.4497C42.3155 37.0837 42.2854 36.7255 42.2272 36.3773L42.2328 36.4149C42.0599 36.1082 41.5939 35.9262 40.8948 35.5561L40.8985 35.5522Z" fill="#5D4731"/>
</svg>
