<svg width="60" height="63" viewBox="0 0 60 63" fill="none" xmlns="http://www.w3.org/2000/svg">
<path d="M45.4 15.275H45.428M16 2H44C51.732 2 58 8.6038 58 16.75V46.25C58 54.3962 51.732 61 44 61H16C8.26801 61 2 54.3962 2 46.25V16.75C2 8.6038 8.26801 2 16 2ZM41.2 29.6415C41.5456 32.0966 41.1475 34.604 40.0625 36.8071C38.9775 39.0102 37.2608 40.7967 35.1566 41.9125C33.0523 43.0284 30.6677 43.4168 28.3418 43.0225C26.0159 42.6282 23.8673 41.4712 22.2015 39.7162C20.5358 37.9612 19.4376 35.6975 19.0634 33.247C18.6891 30.7966 19.0578 28.2842 20.1169 26.0672C21.176 23.8502 22.8717 22.0415 24.9628 20.8984C27.0538 19.7553 29.4337 19.3359 31.764 19.7C34.141 20.0714 36.3416 21.2383 38.0407 23.0285C39.7399 24.8187 40.8475 27.1372 41.2 29.6415Z" stroke="#5D4731" stroke-width="4" stroke-linecap="round" stroke-linejoin="round"/>
</svg>
